<svg height="480pt" viewBox="-88 0 480 480" width="480pt" xmlns="http://www.w3.org/2000/svg"><path d="m264 0h-224c-22.082031.0273438-39.9726562 17.917969-40 40v400c.0273438 22.082031 17.917969 39.972656 40 40h224c22.082031-.027344 39.972656-17.917969 40-40v-400c-.027344-22.082031-17.917969-39.9726562-40-40zm-40 16v8c0 4.417969-3.582031 8-8 8h-128c-4.417969 0-8-3.582031-8-8v-8zm-184 0h24v8c0 13.253906 10.746094 24 24 24h128c13.253906 0 24-10.746094 24-24v-8h24c13.253906 0 24 10.746094 24 24v164.6875l-85.65625 85.65625c-3.121094 3.125-3.121094 8.1875 0 11.3125l85.65625 85.65625v28.6875h-28.496094l-93.601562-101.425781c-1.480469-1.605469-3.554688-2.535157-5.742188-2.574219-2.167968.015625-4.246094.851562-5.816406 2.34375l-101.65625 101.65625h-36.6875v-28.6875l109.65625-109.65625c3.046875-3.046875 3.132812-7.960938.191406-11.113281l-109.847656-117.695313v-108.847656c0-13.253906 10.746094-24 24-24zm248 211.3125v137.375l-68.6875-68.6875zm-50.273438 188.6875h-162.398437l84.441406-84.457031zm-221.726562-51.3125v-192.390625l92.878906 99.511719zm248 99.3125h-224c-13.253906 0-24-10.746094-24-24v-8h272v8c0 13.253906-10.746094 24-24 24zm0 0"/><path d="m168 272c2.628906 0 5.089844-1.292969 6.585938-3.457031 6.695312-9.695313 65.414062-95.742188 65.414062-132.542969 0-39.765625-32.234375-72-72-72s-72 32.234375-72 72c0 36.800781 58.71875 122.847656 65.414062 132.542969 1.496094 2.164062 3.957032 3.457031 6.585938 3.457031zm0-192c30.914062.035156 55.964844 25.085938 56 56 0 24-35.871094 83.238281-56 113.695312-20.136719-30.449218-56-89.695312-56-113.695312.035156-30.914062 25.085938-55.964844 56-56zm0 0"/><path d="m200 136c0-17.671875-14.328125-32-32-32s-32 14.328125-32 32 14.328125 32 32 32 32-14.328125 32-32zm-48 0c0-8.835938 7.164062-16 16-16s16 7.164062 16 16-7.164062 16-16 16-16-7.164062-16-16zm0 0"/><path d="m176 440h-48c-4.417969 0-8 3.582031-8 8s3.582031 8 8 8h48c4.417969 0 8-3.582031 8-8s-3.582031-8-8-8zm0 0"/></svg>