<?xml version="1.0" encoding="iso-8859-1"?>
<!-- Generator: Adobe Illustrator 19.0.0, SVG Export Plug-In . SVG Version: 6.00 Build 0)  -->
<svg version="1.1" id="Capa_1" xmlns="http://www.w3.org/2000/svg" xmlns:xlink="http://www.w3.org/1999/xlink" x="0px" y="0px"
	 viewBox="0 0 512 512" style="enable-background:new 0 0 512 512;" xml:space="preserve">
<g>
	<g>
		<path d="M423.752,406.208L423.751,384h8.499v-15h-64v15h8v22.207c-11,5.419-20.276,14.625-25.781,25.793H335.25v-48h8v-15h-64v15
			h9v80h-217V47h97v17h-80v383h184v-15h-169V79h273v273h15V64h-80V47h97v305h15V32h-112V16h-32V0h-79v16h-32v16h-112v447h232v9.5
			c0,12.958,10.542,23.5,23.5,23.5s23.5-10.542,23.5-23.5V479h14.284c8.65,19.42,28.121,33,50.716,33
			c30.603,0,55.5-24.897,55.5-55.5C455.75,434.834,443.092,415.252,423.752,406.208z M183.25,31h32V15h49v16h32v33h-113V31z
			 M320.25,488.5c0,4.687-3.813,8.5-8.5,8.5s-8.5-3.813-8.5-8.5V464h17V488.5z M320.25,449h-17v-65h17V449z M345.271,464H335.25v-17
			h10.327c-0.54,3.103-0.827,6.277-0.827,9.5C344.75,459.045,344.937,461.545,345.271,464z M386.499,418.302l4.751-1.767V384h17.501
			l0.003,32.536l4.999,1.768c13.747,4.86,23.648,16.708,26.29,30.696h-79.586C363.099,435.01,372.752,423.161,386.499,418.302z
			 M400.25,497c-19.768,0-36.264-14.241-39.792-33h79.585C436.514,482.759,420.018,497,400.25,497z"/>
	</g>
</g>
<g>
	<g>
		<rect x="128.25" y="329" width="96" height="15"/>
	</g>
</g>
<g>
	<g>
		<rect x="128.25" y="361" width="64" height="15"/>
	</g>
</g>
<g>
	<g>
		<rect x="208.25" y="361" width="16" height="15"/>
	</g>
</g>
<g>
	<g>
		<rect x="240.25" y="329" width="16" height="15"/>
	</g>
</g>
<g>
	<g>
		<path d="M343.25,217.734v-29.748l-32.561-21.874c0.526-1.95,0.936-3.998,0.936-6.112c0-12.958-10.48-23.5-23.438-23.5
			s-23.469,10.542-23.469,23.5c0,2.114,0.301,4.162,0.827,6.112l-25.553,16.874l-40.742-27V128h-15v27.986l-25.893,17.429
			c-3.974-3.077-8.829-4.915-14.232-4.915c-12.958,0-23.688,10.542-23.688,23.5c0,10.336,6.813,19.128,15.813,22.266v29.748
			l33.061,21.874c-0.526,1.95-0.686,3.998-0.686,6.112c0,12.958,10.604,23.5,23.562,23.5s23.531-10.542,23.531-23.5
			c0-2.114-0.27-4.162-0.796-6.112l25.069-16.874l40.258,27V304h15.001v-27.986l26.393-17.429c3.974,3.077,9.079,4.915,14.482,4.915
			c12.958,0,23.312-10.542,23.312-23.5C359.437,229.664,353.25,220.872,343.25,217.734z M144.25,200.5c-4.687,0-8.5-3.813-8.5-8.5
			s3.813-8.5,8.5-8.5s8.5,3.813,8.5,8.5S148.937,200.5,144.25,200.5z M192.25,280.5c-4.687,0-8.5-3.813-8.5-8.5s3.813-8.5,8.5-8.5
			s8.5,3.813,8.5,8.5S196.937,280.5,192.25,280.5z M232.251,235.986L232.251,235.986l-25.894,17.429
			c-3.974-3.077-8.829-4.915-14.232-4.915c-5.404,0-10.571,1.838-14.545,4.915l-26.33-17.429v-21.721
			c10-3.138,16.25-11.93,16.25-22.266c0-2.114-0.16-4.162-0.686-6.112l25.124-16.874l40.313,27V235.986z M288.25,151.5
			c4.687,0,8.5,3.813,8.5,8.5s-3.813,8.5-8.5,8.5s-8.5-3.813-8.5-8.5S283.563,151.5,288.25,151.5z M312.5,240
			c0,2.114,0.41,4.162,0.936,6.112l-25.499,16.874l-40.687-27v-39.973l26.393-17.429c3.974,3.077,9.079,4.915,14.482,4.915
			c5.403,0,10.195-1.838,14.17-4.915l25.955,17.429v21.721C319.25,220.872,312.5,229.664,312.5,240z M336.25,248.5
			c-4.687,0-8.5-3.813-8.5-8.5s3.813-8.5,8.5-8.5s8.5,3.813,8.5,8.5S340.937,248.5,336.25,248.5z"/>
	</g>
</g>
<g>
</g>
<g>
</g>
<g>
</g>
<g>
</g>
<g>
</g>
<g>
</g>
<g>
</g>
<g>
</g>
<g>
</g>
<g>
</g>
<g>
</g>
<g>
</g>
<g>
</g>
<g>
</g>
<g>
</g>
</svg>
